<svg width="108" height="25" viewBox="0 0 108 25" fill="none" xmlns="http://www.w3.org/2000/svg">
<g filter="url(#filter0_d_1_4)">
<path d="M17.5977 16.5566C17.4089 15.8926 17.2135 15.235 17.0117 14.584C16.8099 13.9264 16.5983 13.2656 16.377 12.6016L8.51562 12.9434C8.27474 13.5684 8.04362 14.1901 7.82227 14.8086C7.60091 15.4271 7.38607 16.0521 7.17773 16.6836L4.96094 16.3809C5.87891 13.9199 6.89453 11.498 8.00781 9.11523C9.1276 6.73242 10.319 4.3724 11.582 2.03516L14.3164 2.08398C15.4362 4.3431 16.4583 6.64779 17.3828 8.99805C18.3073 11.3418 19.1471 13.7507 19.9023 16.2246L17.5977 16.5566ZM12.7441 3.65625C12.0866 4.90625 11.4648 6.16276 10.8789 7.42578C10.293 8.68229 9.73307 9.95508 9.19922 11.2441L15.8008 10.9609C15.3581 9.71094 14.8828 8.48372 14.375 7.2793C13.8672 6.07487 13.3236 4.86719 12.7441 3.65625Z" fill="url(#paint0_linear_1_4)"/>
<path d="M22.0898 16.7227C22.0508 15.6029 22.015 14.5905 21.9824 13.6855C21.9499 12.7741 21.9206 11.9603 21.8945 11.2441C21.8685 10.528 21.8457 9.89648 21.8262 9.34961C21.8132 8.80273 21.8001 8.33073 21.7871 7.93359C21.7611 7.0026 21.7415 6.3125 21.7285 5.86328L23.9551 5.82422L23.9941 8.63672C24.209 8.26562 24.4531 7.91732 24.7266 7.5918C25 7.25977 25.2962 6.9668 25.6152 6.71289C25.9342 6.45898 26.2728 6.25391 26.6309 6.09766C26.9954 5.94141 27.3763 5.85026 27.7734 5.82422C28.2682 5.79167 28.6979 5.83398 29.0625 5.95117C29.4336 6.06836 29.7493 6.23112 30.0098 6.43945C30.2702 6.64779 30.485 6.89518 30.6543 7.18164C30.8236 7.46159 30.957 7.75456 31.0547 8.06055C31.1523 8.36003 31.2207 8.65951 31.2598 8.95898C31.3053 9.25846 31.3346 9.5319 31.3477 9.7793C31.3867 10.8991 31.3965 12.0254 31.377 13.1582C31.3574 14.291 31.3346 15.4661 31.3086 16.6836L29.3066 16.6152C29.3587 15.5671 29.4043 14.5189 29.4434 13.4707C29.4889 12.4225 29.4857 11.3646 29.4336 10.2969C29.4336 10.1797 29.4238 10.0299 29.4043 9.84766C29.3913 9.65885 29.3555 9.46029 29.2969 9.25195C29.2448 9.04362 29.1699 8.83854 29.0723 8.63672C28.9746 8.42839 28.8477 8.24935 28.6914 8.09961C28.5352 7.94336 28.3431 7.82617 28.1152 7.74805C27.8939 7.66992 27.6335 7.65365 27.334 7.69922C26.8197 7.77734 26.2956 8.15495 25.7617 8.83203C25.2344 9.5026 24.6647 10.4857 24.0527 11.7812C24.0788 12.8294 24.0983 13.666 24.1113 14.291C24.1309 14.9095 24.1471 15.3783 24.1602 15.6973C24.1732 16.0749 24.1829 16.3288 24.1895 16.459L22.0898 16.7227ZM36.8164 2.98242C36.8164 3.17122 36.7773 3.35026 36.6992 3.51953C36.6276 3.6888 36.5267 3.83529 36.3965 3.95898C36.2728 4.08268 36.1263 4.18034 35.957 4.25195C35.7878 4.32357 35.6055 4.35938 35.4102 4.35938C35.2214 4.35938 35.0423 4.32357 34.873 4.25195C34.7103 4.18034 34.5638 4.08268 34.4336 3.95898C34.3099 3.83529 34.2122 3.6888 34.1406 3.51953C34.069 3.35026 34.0332 3.17122 34.0332 2.98242C34.0332 2.78711 34.069 2.60482 34.1406 2.43555C34.2122 2.26628 34.3099 2.11979 34.4336 1.99609C34.5638 1.86589 34.7103 1.76497 34.873 1.69336C35.0423 1.61523 35.2214 1.57617 35.4102 1.57617C35.6055 1.57617 35.7878 1.61523 35.957 1.69336C36.1263 1.76497 36.2728 1.86589 36.3965 1.99609C36.5267 2.11979 36.6276 2.26628 36.6992 2.43555C36.7773 2.60482 36.8164 2.78711 36.8164 2.98242ZM36.3574 6.41992C36.3379 7.35091 36.3184 8.20703 36.2988 8.98828C36.2858 9.76302 36.2728 10.4694 36.2598 11.1074C36.2467 11.7454 36.2337 12.3184 36.2207 12.8262C36.2142 13.3275 36.2077 13.7669 36.2012 14.1445C36.1816 15.043 36.1719 15.7493 36.1719 16.2637H34.1699C34.1829 15.5605 34.1992 14.724 34.2188 13.7539C34.2318 12.9206 34.248 11.9017 34.2676 10.6973C34.2936 9.49284 34.3164 8.0931 34.3359 6.49805L36.3574 6.41992ZM41.6504 9.75977L50.2539 9.33984L50.1562 2.08398L52.334 2.24023L52.4512 15.6582L50.3516 15.8242L50.293 11.1562L41.6699 11.5371L41.7383 15.9219L39.6973 16L39.5117 2.03516L41.5723 1.9375L41.6504 9.75977ZM63.1543 16.7031L63.1152 13.9004C62.9004 14.2845 62.6562 14.6491 62.3828 14.9941C62.1094 15.3327 61.8132 15.6322 61.4941 15.8926C61.1751 16.1465 60.8333 16.3483 60.4688 16.498C60.1107 16.6478 59.7331 16.7161 59.3359 16.7031C58.75 16.6836 58.2454 16.5729 57.8223 16.3711C57.4056 16.1693 57.054 15.9023 56.7676 15.5703C56.4811 15.2318 56.25 14.8444 56.0742 14.4082C55.9049 13.9655 55.7747 13.5 55.6836 13.0117C55.5924 12.5234 55.5306 12.0254 55.498 11.5176C55.472 11.0033 55.459 10.5052 55.459 10.0234C55.459 9.34635 55.4883 8.66276 55.5469 7.97266C55.6055 7.27604 55.6901 6.56641 55.8008 5.84375L57.8027 5.90234C57.6986 6.70964 57.627 7.43555 57.5879 8.08008C57.5553 8.72461 57.5391 9.29102 57.5391 9.7793C57.5391 10.0007 57.5423 10.2806 57.5488 10.6191C57.5553 10.9577 57.5781 11.319 57.6172 11.7031C57.6628 12.0807 57.7311 12.4551 57.8223 12.8262C57.9134 13.1973 58.0404 13.5293 58.2031 13.8223C58.3724 14.1087 58.584 14.3301 58.8379 14.4863C59.0918 14.6426 59.4043 14.6947 59.7754 14.6426C60.2767 14.571 60.7975 14.2259 61.3379 13.6074C61.8848 12.9889 62.4577 12.0384 63.0566 10.7559C63.0371 9.7207 63.0176 8.89388 62.998 8.27539C62.985 7.6569 62.9753 7.1849 62.9688 6.85938C62.9557 6.47526 62.946 6.20833 62.9395 6.05859L65.0391 5.82422C65.0781 6.94401 65.1107 7.95638 65.1367 8.86133C65.1693 9.75977 65.1986 10.5703 65.2246 11.293C65.2507 12.0091 65.2702 12.6406 65.2832 13.1875C65.3027 13.7279 65.319 14.1966 65.332 14.5938C65.3581 15.5247 65.3743 16.2148 65.3809 16.6641L63.1543 16.7031ZM70.2539 1.36133L70.1953 7.12305C70.5729 6.75846 70.9635 6.47852 71.3672 6.2832C71.7773 6.08138 72.1549 5.9349 72.5 5.84375C72.9036 5.73307 73.2975 5.67122 73.6816 5.6582C74.1243 5.6582 74.5638 5.72331 75 5.85352C75.4362 5.97721 75.8496 6.15625 76.2402 6.39062C76.6309 6.61849 76.9889 6.89518 77.3145 7.2207C77.6465 7.54622 77.9297 7.91081 78.1641 8.31445C78.4049 8.71159 78.5872 9.14128 78.7109 9.60352C78.8346 10.0658 78.89 10.5508 78.877 11.0586C78.8574 11.6185 78.7728 12.1458 78.623 12.6406C78.4733 13.1354 78.2747 13.5911 78.0273 14.0078C77.7865 14.418 77.5033 14.7891 77.1777 15.1211C76.8522 15.4531 76.5039 15.7331 76.1328 15.9609C75.7682 16.1888 75.3874 16.3613 74.9902 16.4785C74.5931 16.6022 74.2025 16.6641 73.8184 16.6641C73.4212 16.651 73.0111 16.5892 72.5879 16.4785C72.2233 16.3874 71.8229 16.2409 71.3867 16.0391C70.9505 15.8372 70.5208 15.5508 70.0977 15.1797V16.459L68.2812 16.498L68.1152 1.43945L70.2539 1.36133ZM76.7773 11.2441C76.8099 10.7559 76.748 10.2871 76.5918 9.83789C76.4421 9.38216 76.2174 8.98177 75.918 8.63672C75.625 8.29167 75.2669 8.01823 74.8438 7.81641C74.4271 7.61458 73.9714 7.51693 73.4766 7.52344C73.0729 7.52995 72.6921 7.59831 72.334 7.72852C71.9824 7.85872 71.6634 8.03451 71.377 8.25586C71.097 8.47721 70.8529 8.73438 70.6445 9.02734C70.4362 9.32031 70.2734 9.63281 70.1562 9.96484L70.1367 12.2988C70.2539 12.7025 70.4199 13.0605 70.6348 13.373C70.8496 13.679 71.097 13.9395 71.377 14.1543C71.6634 14.3626 71.9694 14.5221 72.2949 14.6328C72.627 14.737 72.9622 14.7923 73.3008 14.7988C73.776 14.8118 74.2188 14.7272 74.6289 14.5449C75.0456 14.3626 75.4069 14.112 75.7129 13.793C76.0254 13.4674 76.2728 13.0866 76.4551 12.6504C76.6439 12.2142 76.7513 11.7454 76.7773 11.2441ZM90.8828 0.64C92.0628 1.3 94.3628 2.84 95.2428 3.48L94.3028 4.84C93.3428 4.1 91.1628 2.66 90.0028 2L90.8828 0.64ZM87.8828 14.94C90.0828 14.56 92.5628 13.76 94.6028 12.62C97.9228 10.72 100.563 8.1 102.163 5.28L103.143 6.94C101.403 9.62 98.6428 12.2 95.4428 14.08C93.4228 15.26 90.6628 16.18 88.8228 16.56L87.8828 14.94ZM87.8828 5.14C89.0628 5.78 91.4028 7.22 92.2628 7.84L91.3428 9.24C90.3628 8.52 88.2028 7.14 86.9828 6.5L87.8828 5.14Z" fill="#D86801"/>
</g>
<defs>
<filter id="filter0_d_1_4" x="0.960938" y="0.640015" width="106.182" height="24.0826" filterUnits="userSpaceOnUse" color-interpolation-filters="sRGB">
<feFlood flood-opacity="0" result="BackgroundImageFix"/>
<feColorMatrix in="SourceAlpha" type="matrix" values="0 0 0 0 0 0 0 0 0 0 0 0 0 0 0 0 0 0 127 0" result="hardAlpha"/>
<feOffset dy="4"/>
<feGaussianBlur stdDeviation="2"/>
<feComposite in2="hardAlpha" operator="out"/>
<feColorMatrix type="matrix" values="0 0 0 0 0 0 0 0 0 0 0 0 0 0 0 0 0 0 0.25 0"/>
<feBlend mode="normal" in2="BackgroundImageFix" result="effect1_dropShadow_1_4"/>
<feBlend mode="normal" in="SourceGraphic" in2="effect1_dropShadow_1_4" result="shape"/>
</filter>
<linearGradient id="paint0_linear_1_4" x1="29.5" y1="36" x2="61" y2="7" gradientUnits="userSpaceOnUse">
<stop stop-color="white"/>
<stop offset="0.166667" stop-color="#FF7A00"/>
<stop offset="0.545548" stop-color="#FF7A00"/>
</linearGradient>
</defs>
</svg>
